<?xml version="1.0" encoding="UTF-8"?>
<svg version="1.1" xmlns="http://www.w3.org/2000/svg" width="48" height="48">
<path d="M0 0 C15.84 0 31.68 0 48 0 C48 15.84 48 31.68 48 48 C32.16 48 16.32 48 0 48 C0 32.16 0 16.32 0 0 Z " fill="#F8FDFC" transform="translate(0,0)"/>
<path d="M0 0 C1.2375 0.309375 2.475 0.61875 3.75 0.9375 C4.08 1.5975 4.41 2.2575 4.75 2.9375 C2.77 2.9375 0.79 2.9375 -1.25 2.9375 C-1.91 4.5875 -2.57 6.2375 -3.25 7.9375 C-1.93 8.2675 -0.61 8.5975 0.75 8.9375 C-0.57 9.2675 -1.89 9.5975 -3.25 9.9375 C-2.92 11.9175 -2.59 13.8975 -2.25 15.9375 C1.53383679 15.01256212 3.31693694 14.54378829 5.625 11.3125 C6.181875 10.136875 6.181875 10.136875 6.75 8.9375 C7.08 9.9275 7.41 10.9175 7.75 11.9375 C5.66669499 15.58328376 4.37867326 16.75461323 0.3125 17.9375 C-3.62108373 17.9375 -5.20425175 17.35618244 -8.25 14.9375 C-9.86617807 11.70514385 -9.82349284 8.4318052 -9.25 4.9375 C-6.60822278 0.89227863 -4.74383798 -0.46073247 0 0 Z " fill="#74CFBA" transform="translate(24.25,10.0625)"/>
<path d="M0 0 C0.66 0 1.32 0 2 0 C2.33 0.66 2.66 1.32 3 2 C3.33 1.34 3.66 0.68 4 0 C5.65 0 7.3 0 9 0 C9 0.66 9 1.32 9 2 C9.99 2 10.98 2 12 2 C12 1.34 12 0.68 12 0 C15.3 0 18.6 0 22 0 C22.33 1.32 22.66 2.64 23 4 C19.26562152 4.87867729 15.83225427 5.08912219 12 5 C12 4.34 12 3.68 12 3 C11.01 3 10.02 3 9 3 C9 3.66 9 4.32 9 5 C8.34 5 7.68 5 7 5 C6.67 4.34 6.34 3.68 6 3 C3.41222792 6.05580974 3.41222792 6.05580974 3 10 C2.01 10 1.02 10 0 10 C-1.125 3.375 -1.125 3.375 0 0 Z " fill="#57C8AD" transform="translate(16,30)"/>
<path d="M0 0 C0.33 0.99 0.66 1.98 1 3 C-1.08330501 6.64578376 -2.37132674 7.81711323 -6.4375 9 C-10.38285113 9 -11.98105571 8.48618941 -15 6 C-15.33 5.01 -15.66 4.02 -16 3 C-15.67 2.34 -15.34 1.68 -15 1 C-13.68 1 -12.36 1 -11 1 C-9 3 -9 3 -9 7 C-5.21616321 6.07506212 -3.43306306 5.60628829 -1.125 2.375 C-0.75375 1.59125 -0.3825 0.8075 0 0 Z " fill="#A1E3D2" transform="translate(31,19)"/>
<path d="M0 0 C0.33 1.32 0.66 2.64 1 4 C-2.37817425 4.84454356 -4.67465243 5.10844919 -8 4 C-8 3.01 -8 2.02 -8 1 C-5.29120665 -0.35439668 -2.99066732 -0.06501451 0 0 Z " fill="#88D9C2" transform="translate(38,30)"/>
<path d="M0 0 C0.71027344 0.09796875 1.42054687 0.1959375 2.15234375 0.296875 C2.86519531 0.38453125 3.57804687 0.4721875 4.3125 0.5625 C4.89902344 0.72234375 5.48554688 0.8821875 6.08984375 1.046875 C6.41984375 1.706875 6.74984375 2.366875 7.08984375 3.046875 C5.10984375 3.046875 3.12984375 3.046875 1.08984375 3.046875 C0.42984375 5.026875 -0.23015625 7.006875 -0.91015625 9.046875 C-1.24015625 9.046875 -1.57015625 9.046875 -1.91015625 9.046875 C-1.91015625 7.066875 -1.91015625 5.086875 -1.91015625 3.046875 C-2.57015625 2.716875 -3.23015625 2.386875 -3.91015625 2.046875 C-1.91015625 0.046875 -1.91015625 0.046875 0 0 Z " fill="#36B99C" transform="translate(21.91015625,9.953125)"/>
<path d="M0 0 C0.33 0.99 0.66 1.98 1 3 C-0.5 5.625 -0.5 5.625 -3 8 C-6.75 8.8125 -6.75 8.8125 -10 9 C-10.33 8.34 -10.66 7.68 -11 7 C-10.34 6.34 -9.68 5.68 -9 5 C-9 5.66 -9 6.32 -9 7 C-5.21616321 6.07506212 -3.43306306 5.60628829 -1.125 2.375 C-0.75375 1.59125 -0.3825 0.8075 0 0 Z " fill="#3CBEA0" transform="translate(31,19)"/>
<path d="M0 0 C2.97 0 5.94 0 9 0 C9 1.32 9 2.64 9 4 C7.88625 3.814375 6.7725 3.62875 5.625 3.4375 C2.17431139 2.68319343 2.17431139 2.68319343 0 4 C0 2.68 0 1.36 0 0 Z " fill="#85D7BC" transform="translate(20,36)"/>
<path d="M0 0 C0.66 0 1.32 0 2 0 C1.979375 0.721875 1.95875 1.44375 1.9375 2.1875 C1.99820559 4.91925138 2.39258535 7.34256091 3 10 C2.01 10 1.02 10 0 10 C-1.125 3.375 -1.125 3.375 0 0 Z " fill="#7BD2BD" transform="translate(16,30)"/>
<path d="M0 0 C1.65 0 3.3 0 5 0 C5.33 1.32 5.66 2.64 6 4 C4.02 4 2.04 4 0 4 C0 2.68 0 1.36 0 0 Z " fill="#96D5C9" transform="translate(30,36)"/>
</svg>
